<?xml version="1.0" encoding="utf-8"?>
<!-- Generator: Adobe Illustrator 21.0.0, SVG Export Plug-In . SVG Version: 6.00 Build 0)  -->
<svg version="1.1" id="Layer_1" xmlns="http://www.w3.org/2000/svg" xmlns:xlink="http://www.w3.org/1999/xlink" x="0px" y="0px"
	 viewBox="0 0 1600 1080" style="enable-background:new 0 0 1600 1080;" xml:space="preserve">
<style type="text/css">
	.st0{fill:#F9F3FF;}
	.st1{fill:#FE7934;}
	.st2{fill:#FDD047;}
	.st3{fill:#7BDDFF;}
	.st4{fill:#AEE2FF;}
	.st5{fill:#30A9FA;}
	.st6{fill:#46115B;}
	.st7{fill:#FFFFFF;}
	.st8{fill:#FFB1DF;}
	.st9{fill:#FF81CD;}
	.st10{fill:#B656FF;}
	.st11{fill:#D793FF;}
	.st12{fill:#13E0CE;}
	.st13{fill:#11578A;}
	.st14{fill:none;stroke:#11578A;stroke-width:2;stroke-linecap:round;stroke-linejoin:round;stroke-miterlimit:10;}
	.st15{fill:#005AD8;}
	.st16{fill:none;stroke:#FF81CD;stroke-width:2;stroke-linecap:round;stroke-linejoin:round;stroke-miterlimit:10;}
	.st17{fill:#0879F9;}
	.st18{fill:none;stroke:#B656FF;stroke-width:2;stroke-miterlimit:10;}
	.st19{fill:none;stroke:#CCEFFF;stroke-width:2;stroke-miterlimit:10;}
	.st20{fill:none;stroke:#13E0CE;stroke-miterlimit:10;}
	.st21{fill:none;stroke:#0879F9;stroke-width:2;stroke-linecap:round;stroke-linejoin:round;stroke-miterlimit:10;}
	.st22{fill:none;stroke:#F5775A;stroke-width:2;stroke-linecap:round;stroke-linejoin:round;stroke-miterlimit:10;}
	.st23{fill:none;stroke:#B656FF;stroke-width:2;stroke-linecap:round;stroke-linejoin:round;stroke-miterlimit:10;}
	.st24{fill:#9931F4;}
	.st25{fill:#02C4AC;}
	.st26{fill:#FF319E;}
	.st27{fill:#E50A91;}
	.st28{fill:#CC0088;}
	.st29{fill:#00E0CE;}
	.st30{fill:#00468C;}
</style>
<g>
	<path class="st0" d="M633.7,843.9c0-108.1-87.7-195.8-195.8-195.8s-195.8,87.7-195.8,195.8C261.2,843.4,605.4,843.9,633.7,843.9z"
		/>
	<path class="st0" d="M1274.4,843.9c0-200-162.1-362.1-362.1-362.1S550.3,643.9,550.3,843.9C585.6,843,1222.1,843.9,1274.4,843.9z"
		/>
	<path class="st1" d="M811,813.5V688c0-5.3,4.1-9.6,9.3-10v-20h-33v185.5h33v-20C815.1,823.1,811,818.8,811,813.5z"/>
	<path class="st1" d="M1161.2,658H1111v185.5h50.2c11,0,20-9,20-20V678C1181.2,666.9,1172.2,658,1161.2,658z"/>
	<path class="st2" d="M1111.2,658H788c-11,0-20,9-20,20v145.5c0,11,9,20,20,20h323.2c11,0,20-9,20-20V678
		C1131.2,666.9,1122.2,658,1111.2,658z M1111.2,813.5c0,5.5-4.5,10-10,10H798c-5.5,0-10-4.5-10-10V688c0-5.5,4.5-10,10-10h303.2
		c5.5,0,10,4.5,10,10V813.5z"/>
	<g>
		<polygon class="st3" points="995.7,542.8 920.3,542.8 929.2,644 1004.7,644 		"/>
		<path class="st4" d="M977.1,658h-88.8v0c0-7.7,6.2-14,14-14H991L977.1,658z"/>
		<path class="st5" d="M1014.2,552.1h-17.7l7.7,86.9c0.2,2.7-1.9,5-4.6,5H991c-7.7,0-13.9,6.2-13.9,13.9l0,0h36.3
			c5.4,0,9.7-4.7,9.2-10.1L1014.2,552.1z"/>
		<path class="st4" d="M1121.2,356.7H831.9c-11,0-20,9-20,20v200.6c0,11,9,20,20,20h289.3c11,0,20-9,20-20V376.7
			C1141.2,365.7,1132.2,356.7,1121.2,356.7z"/>
		<path class="st6" d="M1131.2,356.7H821.9c-5.5,0-10,4.5-10,10v201.8h329.3V366.7C1141.2,361.2,1136.7,356.7,1131.2,356.7z"/>
		
			<rect x="881.1" y="308.5" transform="matrix(-1.836970e-16 1 -1 -1.836970e-16 1439.1653 -513.8863)" class="st7" width="190.8" height="308.3"/>
	</g>
	<g>
		<path class="st8" d="M618.2,823.1c0,0-6.3,8.8-23.1,9.9C578.3,834.1,554,814,554,814l9.2-32.3l38.8-1.2l-8.6,33L618.2,823.1z"/>
		<path class="st6" d="M554.1,836.6L554,814c0,0,0.3,0.2,1,0.6c4.9,2.8,28,14.6,54.6,11.1c4.8-0.6,7.5-1.5,8.6-2.5
			c11,3.9,21.1,8.6,21.7,13c1.1,8.7-59.9,8.7-80.5,5.5C556.6,841.2,554.1,839.5,554.1,836.6z"/>
		<polygon class="st9" points="576.5,791.2 573.8,803.3 610.1,803.7 610.2,803.7 610.1,803.7 582,792.4 		"/>
		<polygon class="st6" points="601.1,805 553.1,794.8 571.5,652 622.5,680.5 		"/>
		<path class="st8" d="M736.2,823.1c0,0-6.3,8.8-23.1,9.9C696.3,834.1,672,814,672,814l-3.5-4.5l-5.1-6.5l15.4-17.4l7.1-8.1l2.7,3.9
			l2.9,4l19.9,28.1L736.2,823.1z"/>
		<polygon class="st9" points="691.5,785.4 668.5,809.5 663.4,803 678.8,785.6 688.6,781.4 		"/>
		<path class="st6" d="M672.1,836.6L672,814c0,0,0.3,0.2,1,0.6c4.9,2.8,28,14.6,54.6,11.1c4.8-0.6,7.5-1.5,8.6-2.5
			c11,3.9,21.1,8.6,21.7,13c1.1,8.7-59.9,8.7-80.5,5.5C674.6,841.2,672.1,839.5,672.1,836.6z"/>
		<path class="st10" d="M696.7,781.5l-36.8,26.8L576,714.8l-31.3,18.1H458l-4-67.5l49.3-2l65.2-18.5c14.5-4.1,30.1,1.1,39.2,13.2
			L696.7,781.5z"/>
		<path class="st11" d="M354.2,572.2l-11.8,29.1c-5.1,12.4,0.6,26.6,12.8,32.2l59.5,27.2l0.5-28.6l-37.2-27l7.9-12l17.3-19.3
			L354.2,572.2z"/>
		<path class="st12" d="M376.1,507.6l-29.1,67c0,0,16.4,1.2,39.5,21.1L376.1,507.6z"/>
		<path class="st13" d="M557.8,525.9c0,0,4.6,26.1-21.1,53.6C536.7,579.6,513.5,541.5,557.8,525.9z"/>
		<path class="st8" d="M509.7,545.6c0,0,44,38.5,44,38.5c22.4,18.4,35.4,18.3,41-6.2l-22.9-33.5l-33.9-30
			C537.9,514.5,520.5,529.3,509.7,545.6z"/>
		<path class="st8" d="M577.5,459.3l-10.6,87.4c0,0,14.3,50.3,14.5,50.2c28.5-4.7,19.6-134.8,19.6-134.8L577.5,459.3z"/>
		<path class="st6" d="M452.5,379.1c0.9-1,10.7-17.2,20.5-9.5c12.4,9.7,11.8,33.8-4,35.9C450.7,407.9,452.5,379.1,452.5,379.1z"/>
		<path class="st8" d="M479,459.1c-1.6,2.5-3.8,4.4-6.7,5.5c-4.9,1.9-9.3,1.9-14.5,0.8l5,50.5l-41.8-1.5l3.2-59.4l5.9-0.6
			c-2-2.1-3.1-3.5-3.1-3.5l-0.9-3.4l-15.6-59.2l61.2,2.9C471.7,391.1,491,440.8,479,459.1z"/>
		<path class="st12" d="M530.5,658.6l-8.1-147.3c-1.3-20.7-20.1-35.8-40.5-32.6l-82.4,12.8c-18.1,2.8-30.3,20-26.9,38l28.8,148.9
			C401.4,678.3,465.5,683.1,530.5,658.6z"/>
		<path class="st9" d="M479,459.1c-1.6,2.5-3.8,4.4-6.7,5.5c-4.9,1.9-9.3,1.9-14.5,0.8l-0.7-4.8c0,0,14.7,7.8,21.9-1.4
			C478.9,459.2,479,459.1,479,459.1z"/>
		<path class="st6" d="M466.6,382.3c0,0,21.4,22.6-15.2,29.6c0,0,3.5,15,2.2,18.3c-1.3,3.3-2.9,2.1-4.9-0.1s-6.5-2.7-7.5,2.6
			c-1,5.3,0.7,11.7,6.9,10.6c6.3-1.1,4.8,2.6,1.9,12.7c-2.9,10.1,1.2,19,9.6,36.3c8.4,17.3,6.4,48.4-18.5,70.2
			c-28,24.3-88.6,49.5-69.6-17.4c15.6-54.6,33.6-70.1,26.9-99.3c-8.3-35.8-6.6-51.2,9.9-64.1C424.6,368.8,450,363.7,466.6,382.3z"/>
		<path class="st6" d="M467.1,382.9c0,0,21.5,22.3-15.1,49.2c-1.2,0.9-9.3-14.7-5.2-27.2C450.9,392.4,467.1,382.9,467.1,382.9z"/>
		<path class="st12" d="M557.8,525.9l-49.9-41l-20,48.6l48.4,45.2C536.3,578.8,540.6,555.7,557.8,525.9z"/>
		<line class="st14" x1="508.2" y1="551.7" x2="536.2" y2="578.7"/>
		<g>
			<rect x="522.6" y="788.5" class="st4" width="32.4" height="20.3"/>
			<path class="st5" d="M614,733h-63c-9.8,0-18.2-7.1-19.7-16.8l-25.5-156.6c-1.6-9.7-9.9-16.8-19.7-16.8H308
				c-12.3,0-21.7,11.1-19.7,23.2l24.5,150.2c1.6,9.7,9.9,16.8,19.7,16.8h181.6l10.7,59.4c1.7,9.5,10,16.5,19.7,16.5H614
				c11,0,20-9,20-20V753C634,741.9,625.1,733,614,733z"/>
			<path class="st4" d="M288.3,566l24.5,150.2c1.6,9.7,9.9,16.8,19.7,16.8h181.6l-28.3-173.4c-1.6-9.7-9.9-16.8-19.7-16.8H308
				C295.7,542.8,286.3,553.9,288.3,566z"/>
			<path class="st4" d="M288.3,566l37.9,226c1.6,9.7,9.9,16.8,19.7,16.8h181.6l-41.7-249.2c-1.6-9.7-9.9-16.8-19.7-16.8H308
				C295.7,542.8,286.3,553.9,288.3,566z"/>
		</g>
		<polygon class="st15" points="587.5,808.8 606.5,808.8 612.5,843.5 599.5,843.5 		"/>
		<polygon class="st15" points="495.5,808.8 514.5,808.8 520.6,843.5 507.6,843.5 		"/>
		<polygon class="st15" points="375.5,808.8 356.5,808.8 350.5,843.5 363.5,843.5 		"/>
		<polygon class="st15" points="440.4,808.8 421.4,808.8 415.3,843.5 428.4,843.5 		"/>
		<path class="st8" d="M606.8,454.2c2.9-0.7,5-2.5,4-5.4c-0.9-2.8-5-1.4-5-1.4c3.4-1.2,5.1-2.8,3.9-6c-1.1-3.2-5.6-1.5-5.6-1.5
			s4.7-1.8,3.2-5.8c-1.5-3.9-6.8-1.2-6.8-1.2l-12.2,5.4l-3.3-8.2c0,0-1.5-4.8-4.6-3.9c-2.9,0.9-2.2,4.8-2.2,4.8l2.4,12.7l-0.1,0.1
			c-1.2,1.9-1.9,4-2.2,6.2l-1,9.2l3,8l18.5-2.7l-0.6-2.1c2.2-0.4,4.8-1.1,7.4-1.6c4.5-0.9,4.8-2.5,4.5-4.5
			C610,453.9,606.8,454.2,606.8,454.2z"/>
		<line class="st16" x1="604.2" y1="439.9" x2="600.3" y2="441.4"/>
		<line class="st16" x1="606.8" y1="447.1" x2="603" y2="448.4"/>
		<line class="st16" x1="607" y1="454.2" x2="604.1" y2="454.9"/>
	</g>
	<g>
		<path class="st6" d="M921.4,264c7.5,17.1,59.3,40.6,59.3,40.6s0.2-0.1,0.5-0.2c1.4-0.6,5.7-2.9,8.6-9c1.2-2.6,2.2-5.9,2.6-10.1
			c0-0.5,0.1-1.1,0.1-1.6c0.4-10.5,2.4-33.2-17.1-43.3c-18.1-9.3-40.4-2.3-49.7,8c-2.9,3.2-4.8,7-5.1,11.1
			C920.4,261,920.7,262.5,921.4,264z"/>
		<path class="st17" d="M873.9,418.4c0,0,8.9,8.3,23.3,10.9c14.3,2.5,1.3-12.6,1.3-12.6L873.9,418.4z"/>
		<path class="st11" d="M923.5,414.9l-17.6,49.4c-7.2,22.6-34.7,28.9-48,8.8L810,389.2c0,0-9.8-9.4-12.8-14.8
			c-3.4-6.2,4.2-4.3,4.2-4.3c-3.9-6.2,3.4-5.7,3.4-5.7c-4.1-6.6,3.3-7.9,3.3-7.9l-12.5-18.2c-1.8-2.6-1.6-5.1,0.5-6.3
			c1.9-1.2,4.3-0.3,5.7,1.5l20.5,25.6l3.8,1.1l3.3,1l1.2,7.5l1.3,8.4l41.9,54.8l4.8-14.2l3.9-11.7L923.5,414.9z"/>
		<g>
			<path class="st4" d="M802.3,447.4l-99.9-14.1c-4.8-0.7-8.2-5.2-7.5-10l20.3-143.5c0.7-4.8,5.2-8.2,10-7.5l99.9,14.1
				c4.8,0.7,8.2,5.2,7.5,10l-20.3,143.5C811.7,444.7,807.2,448,802.3,447.4z"/>
			
				<rect x="689.7" y="307.8" transform="matrix(0.1397 -0.9902 0.9902 0.1397 300.8278 1065.775)" class="st7" width="148.1" height="104"/>
			<g>
				<path class="st10" d="M795.9,276.6l-38.3-5.4c-3.2-0.5-6.2,1.8-6.6,5l-1,6.8l49.9,7l1-6.8C801.3,280,799.1,277.1,795.9,276.6z"
					/>
				
					<ellipse transform="matrix(0.1397 -0.9902 0.9902 0.1397 395.0013 1006.0893)" class="st10" cx="776.5" cy="275.7" rx="9" ry="9"/>
			</g>
			<path class="st18" d="M799.4,286l-1.3,8.9c-0.3,2-2.1,3.4-4.1,3.1l-40.5-5.7c-2-0.3-3.4-2.1-3.1-4.1l1.3-8.9"/>
			<line class="st19" x1="752" y1="315" x2="812" y2="323.5"/>
			<line class="st19" x1="750.9" y1="323" x2="810.9" y2="331.4"/>
			
				<rect x="727.7" y="310" transform="matrix(0.9902 0.1397 -0.1397 0.9902 51.4385 -99.5278)" class="st19" width="13.9" height="13.3"/>
			<line class="st19" x1="747.8" y1="344.6" x2="807.8" y2="353.1"/>
			<line class="st19" x1="746.7" y1="352.6" x2="806.7" y2="361"/>
			
				<rect x="723.5" y="339.6" transform="matrix(0.9902 0.1397 -0.1397 0.9902 55.5322 -98.6543)" class="st19" width="13.9" height="13.3"/>
			<line class="st19" x1="743.6" y1="374.2" x2="803.7" y2="382.7"/>
			<line class="st19" x1="742.5" y1="382.2" x2="802.5" y2="390.6"/>
			
				<rect x="719.4" y="369.2" transform="matrix(0.9902 0.1397 -0.1397 0.9902 59.6258 -97.7807)" class="st19" width="13.9" height="13.3"/>
			<line class="st19" x1="739.5" y1="403.8" x2="799.5" y2="412.3"/>
			<line class="st19" x1="738.4" y1="411.8" x2="798.4" y2="420.2"/>
			
				<rect x="715.2" y="398.8" transform="matrix(0.9902 0.1397 -0.1397 0.9902 63.7194 -96.9071)" class="st19" width="13.9" height="13.3"/>
			<polyline class="st20" points="730.9,315.5 733.6,318.8 738.8,313.6 			"/>
			<polyline class="st20" points="726.7,345.2 729.4,348.6 734.6,343.4 			"/>
		</g>
		<path class="st5" d="M873.9,418.4l12.4-45.2c0,0,4.9-21.8,43.5-25.9l-12.6,77.8C917.2,425.1,897.9,418.5,873.9,418.4z"/>
		<polygon class="st2" points="914.9,511.9 917.6,558 1040.3,558 1028.3,505.4 		"/>
		<path class="st5" d="M1062.7,429.9c0,0-4.8-35.6-7.9-52.8c-7.6-42.2-40.4-36.7-40.4-36.7l0,0.1c-0.9,0-1.7,0-2.6,0.1l-80.4,6.5
			c-16.6,1.5-28.8,16.3-27.2,32.9l10.7,132c0,0,34.4,5.7,59.1,5.7c20.3,0,59-2.9,59-2.9l-7.3-87.3
			C1046.7,427.1,1062.7,429.9,1062.7,429.9z"/>
		<line class="st21" x1="1013.2" y1="428.7" x2="1009.2" y2="395.8"/>
		<path class="st11" d="M987.6,349.8l-0.1,0.4c-1.4,7.9-8,14.2-16.4,14.8c-10,0.8-18.7-6.6-19.5-16.6c0-0.4,0-0.8,0-1.3l0.1-10.4
			l0.1-7.3l0.2-13l0.2-13.4l30.5-17.3l0.8,10.1l3.5,45.5c0.4,1.3,0.7,2.6,0.8,4C987.8,347,987.8,348.4,987.6,349.8z"/>
		<path class="st10" d="M969.9,319.7c-0.2,1.2-0.5,2.3-0.8,3.4c-3.1,8.9-12,12.4-17.4,13.8l0.1-7.3c-0.9,0.1-1.9,0.1-2.8,0.1
			c-1.8,0-3.5-0.1-5.1-0.4l-3-7c0,0,5.1-3.1,11.1-5.7C960.8,312.8,971.4,310,969.9,319.7z"/>
		<path class="st11" d="M920.2,300c1.1,10.7,4,26.7,23.6,29.3c1.6,0.2,3.3,0.3,5.1,0.3c1,0,1.9,0,2.8-0.1c7.3-0.5,12.9-3,17.3-6.5
			c6.6-5.3,10.2-12.9,12.1-18.7c1.6-4.9,2-8.5,2-8.5c0.1,0,0.2,0,0.3,0.1c2.6,0.7,4.7,0.4,6.3-0.6c3.9-2.3,5-8.1,2.7-11.7
			c-0.2-0.3-0.4-0.6-0.7-0.9c-4.4-4.7-9.1-0.6-9.3-0.4c0,0,0,0,0,0s0.3-1.5,0.3-3.4c0.1-3.8-0.8-9.3-6.6-9.2
			c-8.1,0.2-37.8,4.8-52.6-7.5c-1.1-0.9-2-1.8-2.9-2.9c0,0-0.4,3.8-0.7,9.5c-0.1,1.3-0.1,2.7-0.2,4.2
			C919.3,281,919.3,290.9,920.2,300z"/>
		<path class="st22" d="M811.7,367.9"/>
		<path class="st11" d="M828.9,364l-8.2,2.9c-2.1,0.7-4.3-0.3-5.1-2.4v0c-0.7-2,0.3-4.2,2.2-5l3.6-1.5c0,0,6.7-3,8.2,1.3
			C831.1,363,828.9,364,828.9,364z"/>
		<path class="st16" d="M804.7,364.4"/>
		<path class="st14" d="M1008.3,421.5"/>
		<path class="st17" d="M1062.7,429.9c0,0-9.7,3.5-22,4.1c-12.3,0.6-27-1.3-28.5-4.8l4.1-0.5l41,0.3L1062.7,429.9z"/>
		<path class="st11" d="M1016.3,428.6l10.4,55L1017,558l31.3,0l11.9-52.4c2.8-12.2,3.4-24.8,1.9-37.2l-4.8-39.5
			c0,0-8.7-2.8-19.6-2.8C1023,426.3,1016.3,428.6,1016.3,428.6z"/>
		<line class="st14" x1="973.7" y1="558" x2="972.6" y2="546.6"/>
		<line class="st21" x1="907.9" y1="422.2" x2="906.2" y2="402.2"/>
		<line class="st23" x1="873.6" y1="431.9" x2="882.7" y2="443.1"/>
		<path class="st11" d="M983.3,284.5l-1-2c0,0,2.6-15.7-6.7-15.7c-9.3,0-40.3,0.1-55.1-7.3c0,0,10.8,19.3,24.8,21.9
			C959.3,284.1,983.3,284.5,983.3,284.5z"/>
		<path class="st6" d="M919.8,269C919.8,269,919.8,269,919.8,269c0,0,0-2.9,1.6-5c0.5-0.7,1.2-1.2,2-1.6c1.2-0.5,2.8-0.6,5,0
			c7.7,2.1,4.4-11-2.8-14c-2.9,3.2-4.8,7-5.1,11.1C920.5,259.5,920.1,263.3,919.8,269z"/>
	</g>
	<g>
		
			<rect x="902.5" y="712.1" transform="matrix(-1 -1.224647e-16 1.224647e-16 -1 1849.474 1535.5249)" class="st24" width="44.5" height="111.3"/>
		
			<rect x="921.6" y="727" transform="matrix(-1 -1.224647e-16 1.224647e-16 -1 1876.4789 1550.3794)" class="st25" width="33.2" height="96.5"/>
		<rect x="864.7" y="739.1" class="st26" width="19.2" height="84.3"/>
		<rect x="845.3" y="753.8" class="st5" width="19.2" height="69.6"/>
		<rect x="902.5" y="727" class="st12" width="19.2" height="96.5"/>
		<rect x="883.3" y="712.1" class="st10" width="19.2" height="111.3"/>
	</g>
	<g>
		<rect x="954.9" y="748.5" class="st26" width="95.2" height="74.9"/>
		<g>
			<rect x="954.9" y="748.5" class="st27" width="95.2" height="18"/>
		</g>
		<g>
			<rect x="1032.8" y="748.5" class="st27" width="35.1" height="74.9"/>
		</g>
		<g>
			<rect x="1032.8" y="748.5" class="st28" width="35" height="18"/>
		</g>
		<rect x="949.1" y="748.5" class="st26" width="124.6" height="14.2"/>
	</g>
	<g>
		<path class="st26" d="M859.6,603.7H648.5c-5.5,0-10-4.5-10-10v-47.3c0-5.5,4.5-10,10-10h211.1c5.5,0,10,4.5,10,10v47.3
			C869.6,599.2,865.1,603.7,859.6,603.7z"/>
		<path class="st7" d="M695.8,570c0,2.8-0.6,5.5-1.8,7.9c-3,6.3-9.3,10.6-16.7,10.6c-4,0-7.6-1.2-10.7-3.4
			c-4.7-3.3-7.8-8.9-7.8-15.1c0-10.2,8.3-18.5,18.5-18.5S695.8,559.8,695.8,570z"/>
		<path class="st7" d="M697.4,570c0,3.1-0.7,6-1.9,8.6c-3.2,6.8-10.1,11.5-18.2,11.5c-4.3,0-8.3-1.4-11.6-3.7
			c-5.2-3.6-8.5-9.6-8.5-16.4c0-11.1,9-20.1,20.1-20.1C688.4,549.9,697.4,558.9,697.4,570z"/>
		<path class="st6" d="M669.8,560.2c1.4,3.3,11.5,7.8,11.5,7.8s0,0,0.1,0c0.3-0.1,1.1-0.6,1.7-1.7c0.2-0.5,0.4-1.1,0.5-2
			c0-0.1,0-0.2,0-0.3c0.1-2,0.5-6.4-3.3-8.4c-3.5-1.8-7.8-0.4-9.6,1.5c-0.6,0.6-0.9,1.4-1,2.1C669.6,559.6,669.6,559.9,669.8,560.2z
			"/>
		<path class="st5" d="M694,577.9c-3,6.3-9.3,10.6-16.7,10.6c-4,0-7.6-1.2-10.7-3.4l-0.2-2.6c-0.3-3.2,2-6.1,5.3-6.3l3.9-0.3
			l6.9-0.6l4.7-0.4c0.2,0,0.3,0,0.5,0v0C687.8,574.9,691.6,574.3,694,577.9z"/>
		<path class="st11" d="M682.6,576.8L682.6,576.8c-0.3,1.6-1.6,2.8-3.2,3c-1.9,0.2-3.6-1.3-3.8-3.2c0-0.1,0-0.2,0-0.2l0-2l0-1.4
			l0-2.5l0-2.6l5.9-3.4l0.2,2l0.7,8.8c0.1,0.2,0.1,0.5,0.2,0.8C682.6,576.2,682.6,576.5,682.6,576.8z"/>
		<path class="st10" d="M679.2,570.9c0,0.2-0.1,0.5-0.2,0.7c-0.6,1.7-2.3,2.4-3.4,2.7l0-1.4c-0.2,0-0.4,0-0.6,0c-0.4,0-0.7,0-1-0.1
			l-0.6-1.4c0,0,1-0.6,2.2-1.1C677.4,569.6,679.5,569.1,679.2,570.9z"/>
		<path class="st11" d="M669.6,567.1c0.2,2.1,0.8,5.2,4.6,5.7c0.3,0,0.6,0.1,1,0.1c0.2,0,0.4,0,0.6,0c1.4-0.1,2.5-0.6,3.3-1.3
			c1.3-1,2-2.5,2.3-3.6c0.3-0.9,0.4-1.6,0.4-1.6c0,0,0,0,0.1,0c0.5,0.1,0.9,0.1,1.2-0.1c0.8-0.4,1-1.6,0.5-2.3
			c0-0.1-0.1-0.1-0.1-0.2c-0.8-0.9-1.8-0.1-1.8-0.1c0,0,0,0,0,0s0.1-0.3,0.1-0.7c0-0.7-0.2-1.8-1.3-1.8c-1.6,0-7.3,0.9-10.2-1.4
			c-0.2-0.2-0.4-0.4-0.6-0.6c0,0-0.1,0.7-0.1,1.8c0,0.3,0,0.5,0,0.8C669.4,563.5,669.4,565.4,669.6,567.1z"/>
		<path class="st6" d="M669.5,561.1C669.5,561.1,669.5,561.1,669.5,561.1c0,0,0-0.6,0.3-1c0.1-0.1,0.2-0.2,0.4-0.3
			c0.2-0.1,0.5-0.1,1,0c1.5,0.4,0.8-2.1-0.5-2.7c-0.6,0.6-0.9,1.4-1,2.1C669.6,559.3,669.5,560,669.5,561.1z"/>
		<path class="st2" d="M728.6,561l2.1,4.3c0.1,0.3,0.4,0.5,0.8,0.5l4.7,0.7c0.8,0.1,1.1,1.1,0.6,1.7l-3.4,3.3
			c-0.2,0.2-0.3,0.6-0.3,0.9l0.8,4.7c0.1,0.8-0.7,1.4-1.5,1.1l-4.2-2.2c-0.3-0.2-0.6-0.2-0.9,0l-4.2,2.2c-0.7,0.4-1.6-0.2-1.5-1.1
			l0.8-4.7c0.1-0.3-0.1-0.7-0.3-0.9l-3.4-3.3c-0.6-0.6-0.3-1.6,0.6-1.7l4.7-0.7c0.3,0,0.6-0.3,0.8-0.5l2.1-4.3
			C727.1,560.2,728.2,560.2,728.6,561z"/>
		<path class="st2" d="M763.1,561l2.1,4.3c0.1,0.3,0.4,0.5,0.8,0.5l4.7,0.7c0.8,0.1,1.1,1.1,0.6,1.7l-3.4,3.3
			c-0.2,0.2-0.3,0.6-0.3,0.9l0.8,4.7c0.1,0.8-0.7,1.4-1.5,1.1l-4.2-2.2c-0.3-0.2-0.6-0.2-0.9,0l-4.2,2.2c-0.7,0.4-1.6-0.2-1.5-1.1
			l0.8-4.7c0.1-0.3-0.1-0.7-0.3-0.9l-3.4-3.3c-0.6-0.6-0.3-1.6,0.6-1.7l4.7-0.7c0.3,0,0.6-0.3,0.8-0.5l2.1-4.3
			C761.6,560.2,762.7,560.2,763.1,561z"/>
		<path class="st7" d="M797.6,561l2.1,4.3c0.1,0.3,0.4,0.5,0.8,0.5l4.7,0.7c0.8,0.1,1.1,1.1,0.6,1.7l-3.4,3.3
			c-0.2,0.2-0.3,0.6-0.3,0.9l0.8,4.7c0.1,0.8-0.7,1.4-1.5,1.1l-4.2-2.2c-0.3-0.2-0.6-0.2-0.9,0l-4.2,2.2c-0.7,0.4-1.6-0.2-1.5-1.1
			l0.8-4.7c0.1-0.3-0.1-0.7-0.3-0.9l-3.4-3.3c-0.6-0.6-0.3-1.6,0.6-1.7l4.7-0.7c0.3,0,0.6-0.3,0.8-0.5l2.1-4.3
			C796.1,560.2,797.2,560.2,797.6,561z"/>
		<path class="st7" d="M832.1,561l2.1,4.3c0.1,0.3,0.4,0.5,0.8,0.5l4.7,0.7c0.8,0.1,1.1,1.1,0.6,1.7l-3.4,3.3
			c-0.2,0.2-0.3,0.6-0.3,0.9l0.8,4.7c0.1,0.8-0.7,1.4-1.5,1.1l-4.2-2.2c-0.3-0.2-0.6-0.2-0.9,0l-4.2,2.2c-0.7,0.4-1.6-0.2-1.5-1.1
			l0.8-4.7c0.1-0.3-0.1-0.7-0.3-0.9l-3.4-3.3c-0.6-0.6-0.3-1.6,0.6-1.7l4.7-0.7c0.3,0,0.6-0.3,0.8-0.5l2.1-4.3
			C830.6,560.2,831.7,560.2,832.1,561z"/>
		<path class="st2" d="M796.7,560.4c-0.4,0-0.8,0.2-0.9,0.6l-2.1,4.3c-0.1,0.3-0.4,0.5-0.8,0.5l-4.7,0.7c-0.8,0.1-1.1,1.1-0.6,1.7
			l3.4,3.3c0.2,0.2,0.3,0.6,0.3,0.9l-0.8,4.7c-0.1,0.8,0.7,1.4,1.5,1.1l4.2-2.2c0.2-0.1,0.3-0.1,0.5-0.1V560.4z"/>
	</g>
	<g>
		<path class="st29" d="M1187,707.3c19.6,15.1,45.4,14.3,45.4,14.3s-5.9-25.2-25.5-40.2c-19.6-15.1-45.4-14.3-45.4-14.3
			S1167.5,692.3,1187,707.3z"/>
		<path class="st14" d="M1183.8,683c0,0,69,35,69,92.5"/>
		<path class="st29" d="M1333.3,728.6c-14.8,9.4-32.9,7.2-32.9,7.2s5.8-17.4,20.5-26.8s32.9-7.2,32.9-7.2S1348.1,719.2,1333.3,728.6
			z"/>
		<path class="st14" d="M1337.1,711.6c0,0-50.9,20.3-54.6,60.9"/>
		<path class="st29" d="M1216.9,634.6c11.5,30,40.6,46.8,40.6,46.8s10.6-31.9-0.9-61.9s-40.6-46.8-40.6-46.8
			S1205.5,604.5,1216.9,634.6z"/>
		<path class="st29" d="M1298.4,633.8c-19.7,34.3-13.1,75.1-13.1,75.1s38.7-14.7,58.4-49s13.1-75.1,13.1-75.1
			S1318.2,599.5,1298.4,633.8z"/>
		<path class="st14" d="M1345.2,611.1c0,0-71.3,79.7-71.8,156.6"/>
		<path class="st14" d="M1260.9,780.7c0,0,7.1-134.7-32.5-177.2"/>
		<g>
			<g>
				<path class="st15" d="M1220.6,760.6l0.8,7.2l2.1,18.1l4.2,36.8c1.4,12.1,11.6,21.2,23.7,21.2h31c12.2,0,22.4-9.1,23.8-21.2
					l4.2-36.8l2.1-18.1l0.8-7.2H1220.6z"/>
			</g>
			<polygon class="st30" points="1221.4,767.8 1223.5,785.9 1310.5,785.9 1312.6,767.8 			"/>
			<path class="st15" d="M1217,778.6h100.6c1.1,0,2-0.9,2-2v-14.1c0-1.1-0.9-2-2-2H1217c-1.1,0-2,0.9-2,2v14.1
				C1215,777.7,1215.9,778.6,1217,778.6z"/>
		</g>
	</g>
</g>
<line class="st14" x1="151.8" y1="844.5" x2="1395.8" y2="844.5"/>
</svg>
