<?xml version="1.0" encoding="utf-8"?>
<!-- Generator: Adobe Illustrator 21.0.0, SVG Export Plug-In . SVG Version: 6.00 Build 0)  -->
<svg version="1.1" id="Layer_1" xmlns="http://www.w3.org/2000/svg" xmlns:xlink="http://www.w3.org/1999/xlink" x="0px" y="0px"
	 viewBox="0 0 1600 1080" style="enable-background:new 0 0 1600 1080;" xml:space="preserve">
<style type="text/css">
	.st0{fill:#F9F3FF;}
	.st1{fill:#FFB1DF;}
	.st2{fill:#FF81CD;}
	.st3{fill:#30A9FA;}
	.st4{fill:#AEE2FF;}
	.st5{fill:#0392E2;}
	.st6{fill:#46115B;}
	.st7{fill:#B656FF;}
	.st8{fill:none;stroke:#622D9B;stroke-width:2;stroke-linecap:round;stroke-linejoin:round;stroke-miterlimit:10;}
	.st9{fill:#13E0CE;}
	.st10{fill:#11578A;}
	.st11{fill:#FE7934;}
	.st12{fill:#FDD047;}
	.st13{fill:none;stroke:#11578A;stroke-width:2;stroke-linecap:round;stroke-linejoin:round;stroke-miterlimit:10;}
	.st14{fill:#FF319E;}
	.st15{fill:#CE0076;}
	.st16{fill:#FFFFFF;}
	.st17{fill:#0879F9;}
	.st18{fill:#D793FF;}
	.st19{fill:none;stroke:#231F20;stroke-width:2;stroke-linecap:round;stroke-linejoin:round;stroke-miterlimit:10;}
	.st20{fill:none;stroke:#B656FF;stroke-width:2;stroke-linecap:round;stroke-linejoin:round;stroke-miterlimit:10;}
	.st21{fill:#13BAD2;}
	.st22{fill:#005AD8;}
	.st23{fill:#00468C;}
	.st24{fill:none;stroke:#B656FF;stroke-width:6;stroke-linecap:round;stroke-linejoin:round;stroke-miterlimit:10;}
	.st25{fill:none;stroke:#CCEFFF;stroke-width:8;stroke-miterlimit:10;}
	.st26{fill:none;stroke:#13E0CE;stroke-width:6;stroke-miterlimit:10;}
</style>
<g>
	<path class="st0" d="M660.6,858.8c0-108.1-87.7-195.8-195.8-195.8s-195.8,87.7-195.8,195.8C288.1,858.4,632.3,858.8,660.6,858.8z"
		/>
	<path class="st0" d="M1301.3,858.8c0-200-162.1-362.1-362.1-362.1S577.1,658.9,577.1,858.8C612.5,857.9,1249,858.8,1301.3,858.8z"
		/>
	<g>
		<path class="st1" d="M727.8,809.5v19.2c0,0-23.8,20.8-40.6,20.1c-16.8-0.7-23.3-9.3-23.3-9.3l28.7-10l-0.2-15v0l-0.1-5H727.8z"/>
		<polygon class="st2" points="727.8,809.5 727.8,821.9 692.2,814.5 692.1,814.5 692.2,814.5 722.1,809.5 		"/>
		<rect x="914.4" y="494.2" class="st3" width="23.6" height="13.7"/>
		
			<rect x="832.9" y="699.8" transform="matrix(-1 -4.490642e-11 4.490642e-11 -1 1681.7843 1536.8348)" class="st4" width="16" height="137.2"/>
		<path class="st4" d="M779.7,688.7h129c5.1,0,9.4-3.9,9.9-9l17.9-174.4c0.6-5.9-4-11-9.9-11H808.7c-5.1,0-9.4,3.9-9.9,9
			L779.7,688.7z"/>
		<path class="st3" d="M832.8,674h77.5c5.1,0,9.4-3.9,9.9-9l17.6-170.8h3.9c5.9,0,10.6,5.1,9.9,11l-17.9,174.4c-0.5,5.1-4.8,9-9.9,9
			h-6l0,0h-85V674z"/>
		<path class="st5" d="M817.6,699.8h46.5c3.3,0,6-2.7,6-6v-5.1h-58.5v5.1C811.6,697.1,814.3,699.8,817.6,699.8z"/>
		<g>
			<path class="st3" d="M875.9,858.2h14v-15.8c0-9.8-8-17.8-17.8-17.8h-31.2v14h31.2c2.1,0,3.8,1.7,3.8,3.8V858.2z"/>
		</g>
		<g>
			<path class="st3" d="M792.2,858.2h14v-15.8c0-2.1,1.7-3.8,3.8-3.8h31.2v-14H810c-9.8,0-17.8,8-17.8,17.8V858.2z"/>
		</g>
		<rect x="719.4" y="674" class="st3" width="123.4" height="14.7"/>
		<path class="st6" d="M728.3,851.4l-0.5-22.7c0,0-0.3,0.2-1,0.6c-4.9,2.9-27.6,15.3-54.3,12.5c-4.8-0.5-7.5-1.3-8.7-2.3
			c-10.9,4.2-20.9,9.1-21.4,13.6c-0.9,8.7,60.1,7.1,80.6,3.4C725.9,856,728.3,854.3,728.3,851.4z"/>
		<path class="st7" d="M687.7,814.5l-3.3-134.2c-0.1-25.3-1-42.7,35.6-58.2c30.2-12.9,50-21.5,50-21.5s60.7-5,83.2,5
			c24.4,10.8-13.4,68.5-24.5,68.5c-32.2,0-72.3,0.2-93.4,0.2l-2.6,141.1L687.7,814.5z"/>
		<path class="st1" d="M828.3,830.4l-0.5-1.7l0,0l0,0l-6.3-20.9l-1.6-5.3l-2.1-7l-1.9-6.5l-32.2,10.3l0.3,1l2,6.7l1.3,4.3l5.4,18.2
			l-0.1,0l-28.7,10c0,0,6.5,8.6,23.3,9.3c12.8,0.5,29.7-11.5,37-17.2L828.3,830.4z"/>
		<polygon class="st2" points="788.3,815.4 823.3,814 820.7,805 		"/>
		<path class="st7" d="M783.7,816.6l-42.3-136.3c-8-25.1-2.9-48.5,35.6-58.2c37.8-9.6,59.2-18,59.2-18s36.7,70,15.6,70
			c-32.2,0-38.5,0.2-59.5,0.2l32.9,131.6L783.7,816.6z"/>
		<path class="st8" d="M741.4,680.3c-8-25.1-2.9-48.5,35.6-58.2"/>
		<path class="st7" d="M885.1,600.5v42.4c0,17.2-14,31.2-31.2,31.2h-21.1l-3.9-63.3l12.1-24.1L885.1,600.5z"/>
		<path class="st6" d="M834.3,851.4l-6.6-22.7c0,0-0.3,0.2-1,0.6c-4.9,2.9-27.6,15.3-54.3,12.5c-4.8-0.5-7.5-1.3-8.7-2.3
			c-10.9,4.2-20.9,9.1-21.4,13.6c-0.9,8.7,67.5,4.6,88.3,3.4C833.3,856.4,835,853.9,834.3,851.4z"/>
		<path class="st6" d="M837.6,391.1c0,0,8.9,51.8-4.8,59.8c0,0,30.6-1,28.7-44.3c-1.9-43.2-5.8-70.3-35.9-77.7
			c-13.2-3.2-24.5,3.1-25,3c-31.4-7.1-48,26.2-26.6,57.1C802.2,429.8,813.5,379.1,837.6,391.1z"/>
		<path class="st6" d="M789.9,405.5c0,0,6,43.5-11,48.7c0,0,47.3,3.7,50.5-36.5C832.6,377.6,789.9,405.5,789.9,405.5z"/>
		<polygon class="st1" points="842.1,450.3 831.8,488.3 788.8,458.5 806,446.4 805.8,435.7 805.9,429 806.4,403 837.1,385.5 		"/>
		<path class="st9" d="M921.6,514.7c-4.1-21.2-7.9-40.5-7.9-40.5c-4.8-23.5-19-27.6-34.5-28.1l-36.8-1.2c-0.2,0-0.5,0-0.5,0
			c0.6,14.2-17.1,28.3-32.7,22.3c-14.6-5.6-4.6-19.1-3.1-20.8c-20.7,3-43.4,13-38.7,53.4c2.7,23.4,2.5,82.7,2.4,100.8
			c0,0,17.3,5.6,60.1,5.6c33,0,55.2-5.6,55.2-5.6c0.1-1,0.1-78.1,0.1-78.1C900.6,513.8,921.6,514.7,921.6,514.7z"/>
		<path class="st10" d="M921.6,514.7c0,0-25.6,19.9-49.6,8.5c0,0,9-4.4,21.1-6.5C905.2,514.6,921.6,514.7,921.6,514.7z"/>
		<path class="st6" d="M837.5,390.9c0,0,4,53.3-14.1,61c0,0,40.1,10.4,37.8-46.2C860.7,393.5,843.4,403.1,837.5,390.9z"/>
		<path class="st2" d="M822.7,427.2c0,0-7.4,9.1-16.9,8.5l0.1-6.7C806.8,429.1,816.9,429.4,822.7,427.2z"/>
		<path class="st1" d="M844.4,377.3c-4.8-4.3-9.1,0.5-9.1,0.5c-26.7,1.5-36.6-11.5-36.6-11.5c-7.8,11.4-20.8,13.7-25.3,14.1
			c0.5,5.7,1.4,12.7,3.1,20c3.4,14.4,8,28.3,31.9,29.2c32.1,1.2,29.7-27.8,29.7-27.8l-0.7-11C846.7,392.7,849.3,381.6,844.4,377.3z"
			/>
		<rect x="1071.8" y="590.4" class="st10" width="10.6" height="267.9"/>
		<rect x="959.7" y="590.4" class="st10" width="10.6" height="267.9"/>
		<rect x="618.1" y="590.4" class="st10" width="10.6" height="267.9"/>
		<rect x="508.9" y="596.2" class="st10" width="10.6" height="262.1"/>
		<rect x="521.4" y="589.5" class="st11" width="573.8" height="19.9"/>
		<rect x="492.5" y="589.5" class="st12" width="472.6" height="19.9"/>
		<path class="st9" d="M795.3,448.6l-21.1,5.8c-12,3.7-21.7,12.2-23,24.7l-3.6,35.9c0,0,12-1.3,36.3,6.7L795.3,448.6z"/>
		<path class="st13" d="M767.4,481c-0.6,5.4-0.5,11.8,0,18.7c0.6,8.5,1.6,22.9,2,38.8"/>
		<path class="st1" d="M828.1,564.7c0,0-16.1-0.6-22.7-1.5c-6.5-0.9-26,8.4-34.5,13.1c-8.5,4.6-4.6,7.9,3.6,5.2s19.7-5.4,24.9-7.1
			c4.2-1.4,30.4,8.2,30.4,8.2L828.1,564.7z"/>
		<path class="st1" d="M828.1,582.5c0,0-23.7-2.7-27.4-3s-16,3-21,3s-11.4,0-11.4,0s-3.5,0-1.9-2.6c1.4-2.3,6.8-1.5,6.8-1.5
			s21.8-8.5,29.2-8.2S834.9,580.6,828.1,582.5z"/>
		<path class="st14" d="M697.3,589.5h113.1L789.2,494c-0.3-1.9-2-3.3-3.9-3.3h-105c-2.5,0-4.4,2.2-3.9,4.7l15.1,89.2
			C691.8,587.4,694.3,589.5,697.3,589.5z"/>
		<path class="st15" d="M816.2,582.5c-2.9,0-5.4-2.1-5.9-5L796.2,494c-0.3-1.9-2-3.3-3.9-3.3h-7c2,0,3.6,1.4,3.9,3.3l15.3,90.5
			c0.5,2.9,3,5,5.9,5h1.9h67.8v-7H816.2z"/>
		<path class="st13" d="M921.6,504.7"/>
		<path class="st1" d="M926.4,561.8l-9-47c-27.1,0.1-38.9,5.9-38.9,5.9l7.5,29.7l-57.8,14.3l0.1,17.8h80.5
			C919.7,582.5,928.1,572.7,926.4,561.8z"/>
		<line class="st13" x1="867.5" y1="499.5" x2="872.5" y2="522.4"/>
		<path class="st16" d="M749.6,539.5c1,6.4-3.4,11.5-9.7,11.5c-6.4,0-12.3-5.1-13.3-11.5c-1-6.4,3.4-11.5,9.7-11.5
			C742.7,528,748.7,533.2,749.6,539.5z"/>
	</g>
	<g>
		<g>
			<path class="st10" d="M557.8,319.5v187.8c0,4.4-3.6,8-8,8H271.5c-4.4,0-8-3.6-8-8V319.5H557.8 M559.8,317.5H261.5v189.8
				c0,5.5,4.5,10,10,10h278.3c5.5,0,10-4.5,10-10V317.5L559.8,317.5z"/>
		</g>
		<path class="st9" d="M559.8,330.3H261.5v-20.7c0-5.5,4.5-10,10-10h278.3c5.5,0,10,4.5,10,10V330.3z"/>
		<circle class="st16" cx="279" cy="314.1" r="4.7"/>
		<circle class="st16" cx="295.2" cy="314.1" r="4.7"/>
		<path class="st17" d="M486.5,437.3c0,0,26.5-8.7,36.7-38.3C523.2,399,486.3,398.1,486.5,437.3z"/>
		<path class="st18" d="M504.1,387.7l30.6,29.7l65.8-50.1c0,0,19.1,16.6,14.9,21.6c-39.1,46.6-67.2,65.7-67.2,65.7
			c-11.1,5.8-21.5,7.3-30.1,1.4l-42-34.4L504.1,387.7z"/>
		<path class="st3" d="M471.5,348.1l51.6,50.9c0,0-23.6,14.3-36.7,38.3l-38-42L471.5,348.1z"/>
		<path class="st6" d="M398.3,296.7c0,0-10.8,0.8-10.2-16.8c0.6-17.5,0.3-20.1,1-32.4c0.7-13,2.8-22.9,15.2-22.4
			c12.2,0.5,39.5-0.7,51.4-3.9c23.6-6.4,43,36.4,4,51.2C411.9,290.4,398.3,296.7,398.3,296.7z"/>
		<path class="st3" d="M479.9,515.3l0-147.4c0-15-11.9-27.2-26.9-27.4l-99.9-1.7c-13.6-0.2-24.8,9.4-27.4,23l-11.3,54.7
			c0,0,22-1.6,39.2,2.8c0.5,0.1-4.8,96-4.7,96C408.8,515.3,479.9,515.3,479.9,515.3z"/>
		<line class="st19" x1="480" y1="448.1" x2="480.2" y2="414.6"/>
		<path class="st18" d="M395,345.6l0.1,0.5c2.1,8.3,9.6,14.6,18.7,14.7c10.8,0.1,19.6-8.5,19.7-19.3c0-0.5,0-0.9-0.1-1.4l-0.9-10.3
			l-0.1-0.8l-0.7-7.8l-0.8-8.9l-0.4-5l-1.2-14.4l-34-16.2l-0.1,10.9l-0.3,49c-0.4,1.4-0.5,2.9-0.6,4.4
			C394.5,342.7,394.7,344.2,395,345.6z"/>
		<path class="st7" d="M406.4,309.9c0,0,7.3,18.5,26.1,19.9l-0.1-0.8l-0.7-7.8l-0.8-8.9c-3.2-2.6-5.7-4.5-5.7-4.5L406.4,309.9z"/>
		<path class="st18" d="M395.4,286.1c0.1,0,0.2,0,0.3-0.1c0,0,1.2,15.7,13.6,27c4.4,4,10.3,7.1,18.1,8c1,0.1,2,0.2,3.1,0.3
			c2,0.1,3.8,0.1,5.5-0.1c21.1-1.5,25.3-18.6,27.1-29.9c1.6-9.7,2-17.3,2.2-25.6c0.2-8.6,0.2-12.3,0.2-12.3
			c-19,13.4-65.3,3.6-65.3,3.6l-2.7,14.7c0,0,0,0,0,0c-0.3-0.3-5.1-5-10-0.2C382.2,276.3,385.3,288.2,395.4,286.1z"/>
		<path class="st13" d="M377.5,423.1"/>
		<path class="st10" d="M314.5,416.5c0,0,21.6,10.9,53,4.9C367.5,421.4,342.1,414.9,314.5,416.5z"/>
		<path class="st10" d="M367.2,422.4c0,0-30.1,3.3-52.8-5.9l52.2,4.9L367.2,422.4z"/>
		<path class="st18" d="M600.1,367.7l7.4-12.8c0,0,2.6-4.9,5-4.2c2.4,0.7,1.8,4.1,1,6.1c-0.8,1.8-3.5,7.9-3.5,7.9s8.3-5.1,10.7-6.7
			c2.4-1.6,11-11.6,12.8-13.8s3.6-3.4,5.5-1.9c1.6,1.3,1.5,3.5-0.4,6.2c0,0,2.5-2.8,3.9-4.8c1.5-2,3.4-4.1,5.7-2.6
			c2.1,1.4,2.3,3.5,0.2,6.6c-2.2,3.2-6.1,7.5-6.1,7.5s5.1-5.9,7.3-3.8c1.8,1.8,1.4,4.4-2.6,8.1l-7.7,6.6c0,0,5.3-4.7,7.1-2.4
			c1.9,2.4-0.2,4.6-3.5,7.3c-3.3,2.6-15.5,12.9-28,18.2C596.9,397,600.1,367.7,600.1,367.7z"/>
		<polyline class="st20" points="638.4,348.5 630.6,357.6 626,361.7 		"/>
		<polyline class="st20" points="643.1,353.9 633.5,363.3 630.6,365.6 		"/>
		<line class="st20" x1="640.5" y1="365.1" x2="633.5" y2="370.1"/>
		<path class="st12" d="M641.9,283.6l19.7,32.7c0.7,1.1,1.9,1.8,3.2,1.9l38.1,2.3c3.3,0.2,5,4.1,2.8,6.6l-25,28.9
			c-0.9,1-1.2,2.4-0.8,3.6l9.6,36.9c0.8,3.2-2.4,6-5.4,4.7l-35.2-14.8c-1.2-0.5-2.6-0.4-3.7,0.3L613,407.3c-2.8,1.8-6.4-0.4-6.1-3.7
			l3.2-38c0.1-1.3-0.4-2.6-1.4-3.4l-29.5-24.2c-2.6-2.1-1.6-6.2,1.6-7l37.2-8.7c1.3-0.3,2.3-1.2,2.8-2.4l13.9-35.5
			C635.9,281.1,640.1,280.8,641.9,283.6z"/>
		<line class="st13" x1="367.4" y1="421.4" x2="373.1" y2="393.6"/>
		<path class="st18" d="M332.3,515.2h30.9l-8.3-61l8.3-34.1c0,0-23.3-5.1-43.8-3.9c0,0-1.3,8.7-2.7,17.6c-1.8,11.9-1,24.1,2.4,35.6
			L332.3,515.2z"/>
		<path class="st18" d="M600.1,367.7l7.4-12.8c0,0,2.6-4.9,5-4.2c2.4,0.7,1.8,4.1,1,6.1c-0.8,1.8-3.5,7.9-3.5,7.9L600.1,367.7z"/>
	</g>
	<g>
		<path class="st9" d="M393.8,788.9C393.8,788.9,393.8,788.9,393.8,788.9c-0.7-0.5-23.9-17.6-36.5-45.7c-3.5-7.8-5.8-15.7-7.3-23
			c-4-19.3-2.4-34.6-2.4-34.6s23.7,17.2,36.5,45.7C396.8,759.8,393.8,788.9,393.8,788.9z"/>
		<path class="st21" d="M393.8,788.9C393.8,788.9,393.8,788.9,393.8,788.9c-0.7-0.5-46.2-103.4-46.2-103.4s23.7,17.2,36.5,45.7
			C396.8,759.8,393.8,788.9,393.8,788.9z"/>
		<path class="st9" d="M413.6,723.9c-0.4,35.7-17.4,64.5-17.4,64.5s-16.4-29.1-16.1-64.9c0.4-35.7,17.4-64.5,17.4-64.5
			S414,688.2,413.6,723.9z"/>
		<path class="st21" d="M413.6,723.9c-0.4,35.7-17.4,64.5-17.4,64.5l1.3-129.4C397.6,659,414,688.2,413.6,723.9z"/>
		<path class="st9" d="M434.7,742.4c-11.2,29.2-33.9,47.7-33.9,47.7s-4.6-28.9,6.5-58.1s33.9-47.7,33.9-47.7
			S445.9,713.2,434.7,742.4z"/>
		<path class="st21" d="M434.7,742.4c-11.2,29.2-33.9,47.7-33.9,47.7l40.4-105.8C441.2,684.3,445.9,713.2,434.7,742.4z"/>
		<path class="st9" d="M441.4,760c-13.2,18.1-32.3,26.5-32.3,26.5s2.2-20.8,15.4-38.8s32.3-26.5,32.3-26.5S454.6,741.9,441.4,760z"
			/>
		<path class="st21" d="M441.4,760c-13.2,18.1-32.3,26.5-32.3,26.5l47.7-65.4C456.8,721.1,454.6,741.9,441.4,760z"/>
		<path class="st9" d="M351.9,760c13.2,18.1,32.3,26.5,32.3,26.5s-2.2-20.8-15.4-38.8s-32.3-26.5-32.3-26.5S338.7,741.9,351.9,760z"
			/>
		<path class="st21" d="M384.1,786.5c0,0-2.2-20.8-15.4-38.8s-32.3-26.5-32.3-26.5L384.1,786.5z"/>
		<polygon class="st22" points="440.8,784.6 437.9,795.1 420.7,858.4 368.3,858.4 351,795.1 348.2,784.6 		"/>
		<polygon class="st23" points="440.8,784.6 437.9,795.1 351,795.1 348.2,784.6 		"/>
		<rect x="344.6" y="777.8" class="st22" width="99" height="12"/>
	</g>
	<g>
		<path class="st3" d="M1318.5,858.8h-265.1c-11,0-20-9-20-20V351.4c0-11,9-20,20-20h265.1c11,0,20,9,20,20v487.4
			C1338.5,849.8,1329.5,858.8,1318.5,858.8z"/>
		<path class="st4" d="M1298.5,858.8h-265.1c-11,0-20-9-20-20V351.4c0-11,9-20,20-20h265.1c11,0,20,9,20,20v487.4
			C1318.5,849.8,1309.5,858.8,1298.5,858.8z"/>
		
			<rect x="922.2" y="462.5" transform="matrix(-1.836970e-16 1 -1 -1.836970e-16 1761.0208 -570.8932)" class="st16" width="487.4" height="265.1"/>
		<g>
			<path class="st7" d="M1221.1,316.3h-110.2c-7.7,0-14,6.3-14,14v21h138.2v-21C1235.1,322.6,1228.8,316.3,1221.1,316.3z"/>
			<circle class="st7" cx="1166" cy="321.3" r="24.7"/>
		</g>
		<path class="st24" d="M1232.1,340.5v24.8c0,5.5-4.5,10-10,10h-112.2c-5.5,0-10-4.5-10-10v-24.8"/>
		<line class="st25" x1="1127" y1="437.5" x2="1273" y2="437.5"/>
		<line class="st25" x1="1127" y1="459.5" x2="1273" y2="459.5"/>
		<rect x="1061.4" y="430.3" class="st25" width="38.1" height="36.4"/>
		<line class="st25" x1="1127" y1="519.5" x2="1273" y2="519.5"/>
		<line class="st25" x1="1127" y1="541.5" x2="1273" y2="541.5"/>
		<rect x="1061.4" y="512.3" class="st25" width="38.1" height="36.4"/>
		<line class="st25" x1="1127" y1="601.5" x2="1273" y2="601.5"/>
		<line class="st25" x1="1127" y1="623.5" x2="1273" y2="623.5"/>
		<rect x="1061.4" y="594.3" class="st25" width="38.1" height="36.4"/>
		<line class="st25" x1="1127" y1="683.5" x2="1273" y2="683.5"/>
		<line class="st25" x1="1127" y1="705.5" x2="1273" y2="705.5"/>
		<rect x="1061.4" y="676.3" class="st25" width="38.1" height="36.4"/>
		<line class="st25" x1="1127" y1="765.5" x2="1273" y2="765.5"/>
		<line class="st25" x1="1127" y1="787.5" x2="1273" y2="787.5"/>
		<rect x="1061.4" y="758.3" class="st25" width="38.1" height="36.4"/>
		<polyline class="st26" points="1069.9,446.8 1078.4,454.8 1090.5,438.8 		"/>
		<polyline class="st26" points="1069.9,529.3 1078.4,537.3 1090.5,521.3 		"/>
		<polyline class="st26" points="1069.9,775.2 1078.4,783.2 1090.5,767.2 		"/>
	</g>
</g>
<line class="st13" x1="171.5" y1="859.8" x2="1415.5" y2="859.8"/>
</svg>
